<svg width="800" height="800" viewBox="0 0 800 800" fill="none" xmlns="http://www.w3.org/2000/svg">
<path d="M116.594 414.531L157.341 435.138C158.036 435.601 158.732 435.717 159.422 435.833C159.538 435.949 159.654 435.949 159.77 435.949C160.929 435.949 162.431 435.253 163.127 434.326C163.706 433.63 164.054 432.702 164.17 431.549C164.286 430.969 164.286 430.041 164.286 429.004V426.342C164.17 425.531 163.938 424.719 163.706 424.029C163.359 422.985 162.779 422.296 161.973 421.716C161.625 421.368 161.161 421.136 160.465 420.672L133.378 407.592L160.697 394.281C161.277 393.933 161.856 393.585 162.314 393.237C163.01 392.657 163.474 391.845 163.822 390.924C163.938 390.344 164.17 389.648 164.286 388.726L164.292 386.053C164.292 383.624 163.944 382.116 163.248 381.073C162.32 379.681 160.239 378.643 157.462 380.029L117.179 400.402C116.483 400.634 115.44 401.446 114.982 402.026C114.75 402.49 114.402 402.954 114.17 403.534C114.054 404.113 113.822 404.809 113.706 405.615C113.59 406.195 113.59 406.775 113.59 407.464C113.59 409.088 113.706 410.357 114.054 411.285C114.628 412.915 115.44 413.951 116.594 414.531Z" fill="#FFDB6E"/>
<path d="M175.875 454C176.571 454.464 177.377 454.812 178.536 455.159C179.232 455.275 180.16 455.391 181.313 455.391C182.241 455.391 183.053 455.275 183.627 455.159C184.438 455.159 185.018 454.928 185.592 454.696C186.52 454.348 187.215 453.884 187.789 453.188C188.253 452.608 188.601 451.796 188.949 450.991L220.205 365.096C220.669 364.052 220.785 363.13 220.553 362.086C220.321 360.927 219.625 359.773 218.697 359.077C217.886 358.729 217.19 358.382 216.152 358.15C214.761 357.918 212.563 357.918 211.172 358.034C210.244 358.15 209.432 358.266 208.858 358.729C208.047 359.077 207.351 359.425 206.893 360.121C206.313 360.701 205.849 361.397 205.733 362.202L174.477 447.987C174.013 449.03 173.781 450.184 174.013 451.112C174.251 452.265 174.947 453.304 175.875 454Z" fill="#FFDB6E"/>
<path d="M30.125 253.735C28.6174 253.735 27.1159 253.503 25.7244 252.923V664.001C25.7244 691.437 48.1853 713.781 75.6212 713.781H724.481C751.917 713.781 774.26 691.435 774.26 664.001V252.923C772.869 253.503 771.483 253.735 769.976 253.735H30.125ZM86.2719 322.503C86.2719 307.452 98.43 295.3 113.359 295.3H281.922C296.857 295.3 309.009 307.458 309.009 322.503V490.941C309.009 505.992 296.851 518.028 281.922 518.028H113.359C98.4241 518.028 86.2719 505.986 86.2719 490.941V322.503ZM711.741 663.55H96.8812C94.4825 663.55 92.5417 661.603 92.5417 659.211C92.5417 656.812 94.4887 654.871 96.8812 654.871H711.725C714.124 654.871 716.065 656.818 716.065 659.211C716.071 661.609 714.124 663.55 711.731 663.55M711.731 601.813H96.8717C94.473 601.813 92.5322 599.866 92.5322 597.473C92.5322 595.074 94.4792 593.134 96.8717 593.134H711.716C714.114 593.134 716.055 595.081 716.055 597.473C716.061 599.866 714.114 601.813 711.722 601.813M711.722 540.075H363.128C360.729 540.075 358.788 538.128 358.788 535.736C358.788 533.337 360.735 531.396 363.128 531.396H711.722C714.12 531.396 716.061 533.343 716.061 535.736C716.067 538.128 714.12 540.075 711.728 540.075M711.728 478.35H363.134C360.735 478.35 358.794 476.403 358.794 474.011C358.794 471.612 360.741 469.671 363.134 469.671H711.728C714.126 469.671 716.067 471.618 716.067 474.011C716.073 476.403 714.126 478.35 711.734 478.35M711.734 416.613H363.14C360.741 416.613 358.8 414.666 358.8 412.273C358.8 409.868 360.748 407.934 363.14 407.934H711.734C714.132 407.934 716.073 409.869 716.073 412.273C716.079 414.666 714.132 416.613 711.74 416.613M711.74 354.875H363.146C360.747 354.875 358.807 352.928 358.807 350.536C358.807 348.137 360.754 346.196 363.146 346.196H711.74C714.139 346.196 716.079 348.143 716.079 350.536C716.085 352.928 714.138 354.875 711.746 354.875M711.746 293.138H363.152C360.753 293.138 358.813 291.191 358.813 288.798C358.813 286.399 360.76 284.459 363.152 284.459H711.746C714.145 284.459 716.085 286.406 716.085 288.798C716.092 291.191 714.145 293.138 711.752 293.138" fill="#FFDB6E"/>
<path d="M235.375 435.828H235.491C236.187 435.828 236.998 435.596 237.688 435.248L278.435 414.642C278.783 414.526 279.827 413.83 280.059 413.482C280.522 413.018 280.87 412.323 281.218 411.401C281.334 410.937 281.45 410.473 281.566 409.777C281.682 409.082 281.682 408.502 281.682 407.696C281.682 406.189 281.45 404.803 281.218 403.875C280.638 402.252 279.827 401.214 278.673 400.75L237.926 380.144C237.114 379.68 236.419 379.448 235.729 379.332C234.453 379.216 232.604 380.028 231.908 381.066C231.444 381.762 231.212 382.573 230.98 383.611V388.707C230.98 389.751 231.212 390.557 231.328 391.253C231.792 392.18 232.372 392.986 233.184 393.566C233.648 393.914 234.112 394.262 234.801 394.494L261.773 407.573L234.686 421.001C233.99 421.233 233.41 421.581 232.836 422.045C232.141 422.625 231.677 423.436 231.329 424.358C231.097 425.054 230.981 425.75 230.981 426.555V431.536C231.213 432.58 231.445 433.385 231.909 433.965C232.482 434.899 234.215 435.828 235.375 435.828Z" fill="#FFDB6E"/>
<path d="M724.484 86.2188H75.6249C48.1889 86.2188 25.728 108.68 25.728 136.116V240.65C25.728 243.079 27.6933 245.051 30.1286 245.051H769.988C772.417 245.051 774.273 243.085 774.273 240.65V136.116C774.273 108.68 751.927 86.2188 724.493 86.2188M116.384 197.358C99.7149 197.358 86.2868 183.93 86.2868 167.377C86.2868 150.708 99.7146 137.286 116.384 137.286C132.937 137.286 146.365 150.701 146.365 167.377C146.365 183.923 132.937 197.358 116.384 197.358ZM220.51 197.358C203.841 197.358 190.413 183.93 190.413 167.377C190.413 150.708 203.841 137.286 220.51 137.286C237.063 137.286 250.491 150.701 250.491 167.377C250.498 183.923 237.07 197.358 220.51 197.358ZM324.643 197.358C307.974 197.358 294.546 183.93 294.546 167.377C294.546 150.708 307.974 137.286 324.643 137.286C341.196 137.286 354.624 150.701 354.624 167.377C354.63 183.923 341.203 197.358 324.643 197.358Z" fill="#FFDB6E"/>
</svg>
