<?xml version="1.0" encoding="UTF-8"?>
<!-- Uploaded to: SVG Find, www.svgrepo.com, Generator: SVG Find Mixer Tools -->
<svg fill="#000000" width="800px" height="800px" version="1.1" viewBox="144 144 512 512" xmlns="http://www.w3.org/2000/svg">
 <path d="m530.3 198.85h-213.35v42.637h-138.52v92.012h19.57v17.66h-19.57v92.012h19.57v17.66h-19.57v92.012h138.52v34.949h304.62v-297.73zm4.082 23.652 63.531 63.531h-63.531zm-342.11 97.102v-64.277h287.75v64.277zm268.19 13.895v17.66h-248.57v-17.66zm-268.19 95.777v-64.277h287.75v64.277zm19.621 13.895h248.57v17.66h-248.57zm-19.621 95.777v-64.277h287.75v64.277zm138.52 34.945v-21.105h163.08v-91.957h-19.57v-17.66h19.57v-92.012h-19.57v-17.66h19.57v-92.012h-163.08v-28.797h189.7v87.188h87.188v274.02zm-97.207-265.85c11.242 0 20.363-9.1211 20.363-20.363 0-11.242-9.1211-20.363-20.363-20.363-11.242 0-20.363 9.1211-20.363 20.363 0.050781 11.191 9.1719 20.363 20.363 20.363zm0-26.887c3.6055 0 6.5234 2.918 6.5234 6.5234s-2.918 6.5234-6.5234 6.5234-6.5234-2.918-6.5234-6.5234c0.054687-3.6055 2.9688-6.5234 6.5234-6.5234zm51.02 26.887c11.242 0 20.363-9.1211 20.363-20.363 0-11.242-9.1211-20.363-20.363-20.363-11.242 0-20.363 9.1211-20.363 20.363-0.003906 11.191 9.1172 20.363 20.363 20.363zm0-26.887c3.6055 0 6.5234 2.918 6.5234 6.5234s-2.918 6.5234-6.5234 6.5234c-3.6055 0-6.5234-2.918-6.5234-6.5234s2.9141-6.5234 6.5234-6.5234zm-51.02 136.35c11.242 0 20.363-9.1211 20.363-20.363 0-11.242-9.1211-20.363-20.363-20.363-11.242 0-20.363 9.1211-20.363 20.363 0.050781 11.242 9.1719 20.363 20.363 20.363zm0-26.836c3.6055 0 6.5234 2.918 6.5234 6.5234s-2.918 6.5234-6.5234 6.5234-6.5234-2.918-6.5234-6.5234c0.054687-3.6055 2.9688-6.5234 6.5234-6.5234zm51.02 26.836c11.242 0 20.363-9.1211 20.363-20.363 0-11.242-9.1211-20.363-20.363-20.363-11.242 0-20.363 9.1211-20.363 20.363-0.003906 11.242 9.1172 20.363 20.363 20.363zm0-26.836c3.6055 0 6.5234 2.918 6.5234 6.5234s-2.918 6.5234-6.5234 6.5234c-3.6055 0-6.5234-2.918-6.5234-6.5234s2.9141-6.5234 6.5234-6.5234zm-51.02 95.777c-11.242 0-20.363 9.1211-20.363 20.363 0 11.242 9.1211 20.363 20.363 20.363 11.242 0 20.363-9.1211 20.363-20.363 0-11.242-9.1211-20.363-20.363-20.363zm0 26.887c-3.6055 0-6.5234-2.918-6.5234-6.5234 0-3.6055 2.918-6.5234 6.5234-6.5234s6.5234 2.918 6.5234 6.5234c0 3.6094-2.918 6.5234-6.5234 6.5234zm51.02-26.887c-11.242 0-20.363 9.1211-20.363 20.363 0 11.242 9.1211 20.363 20.363 20.363 11.242 0 20.363-9.1211 20.363-20.363-0.054688-11.242-9.1758-20.363-20.363-20.363zm0 26.887c-3.6055 0-6.5234-2.918-6.5234-6.5234 0-3.6055 2.918-6.5234 6.5234-6.5234 3.6055 0 6.5234 2.918 6.5234 6.5234-0.003906 3.6094-2.9727 6.5234-6.5234 6.5234z"/>
</svg>