<svg width="800" height="800" viewBox="0 0 800 800" fill="none" xmlns="http://www.w3.org/2000/svg">
<path d="M603.594 85.7031H270.234V152.323H53.7969V296.092H84.375V323.686H53.7969V467.455H84.375V495.048H53.7969V638.817H270.234V693.425H746.203V228.222L603.594 85.7031ZM609.972 122.659L709.239 221.927H609.972V122.659ZM75.425 274.381V173.948H525.034V274.381H75.425ZM494.472 296.092V323.686H106.081V296.092H494.472ZM75.425 445.744V345.311H525.034V445.744H75.425ZM106.083 467.455H494.473V495.048H106.083V467.455ZM75.425 617.106V516.673H525.034V617.106H75.425ZM291.862 671.708V638.731H546.675V495.048H516.097V467.455H546.675V323.686H516.097V296.092H546.675V152.323H291.862V107.328H588.269V243.559H724.5V671.716L291.862 671.708ZM139.977 256.317C157.542 256.317 171.794 242.065 171.794 224.5C171.794 206.934 157.542 192.683 139.977 192.683C122.411 192.683 108.159 206.935 108.159 224.5C108.239 241.986 122.49 256.317 139.977 256.317ZM139.977 214.306C145.61 214.306 150.169 218.866 150.169 224.499C150.169 230.133 145.61 234.692 139.977 234.692C134.343 234.692 129.784 230.133 129.784 224.499C129.869 218.865 134.423 214.306 139.977 214.306ZM219.695 256.317C237.261 256.317 251.512 242.065 251.512 224.5C251.512 206.934 237.261 192.683 219.695 192.683C202.13 192.683 187.878 206.935 187.878 224.5C187.872 241.986 202.124 256.317 219.695 256.317ZM219.695 214.306C225.329 214.306 229.888 218.866 229.888 224.499C229.888 230.133 225.329 234.692 219.695 234.692C214.062 234.692 209.503 230.133 209.503 224.499C209.503 218.866 214.056 214.306 219.695 214.306ZM139.977 427.353C157.542 427.353 171.794 413.101 171.794 395.536C171.794 377.97 157.542 363.719 139.977 363.719C122.411 363.719 108.159 377.97 108.159 395.536C108.239 413.102 122.49 427.353 139.977 427.353ZM139.977 385.422C145.61 385.422 150.169 389.981 150.169 395.615C150.169 401.248 145.61 405.807 139.977 405.807C134.343 405.807 129.784 401.248 129.784 395.615C129.869 389.981 134.423 385.422 139.977 385.422ZM219.695 427.353C237.261 427.353 251.512 413.101 251.512 395.536C251.512 377.97 237.261 363.719 219.695 363.719C202.13 363.719 187.878 377.97 187.878 395.536C187.872 413.102 202.124 427.353 219.695 427.353ZM219.695 385.422C225.329 385.422 229.888 389.981 229.888 395.615C229.888 401.248 225.329 405.807 219.695 405.807C214.062 405.807 209.503 401.248 209.503 395.615C209.503 389.981 214.056 385.422 219.695 385.422ZM139.977 535.073C122.411 535.073 108.159 549.325 108.159 566.891C108.159 584.456 122.411 598.708 139.977 598.708C157.542 598.708 171.794 584.456 171.794 566.891C171.794 549.325 157.542 535.073 139.977 535.073ZM139.977 577.084C134.343 577.084 129.784 572.525 129.784 566.892C129.784 561.258 134.343 556.699 139.977 556.699C145.61 556.699 150.169 561.258 150.169 566.892C150.169 572.531 145.61 577.084 139.977 577.084ZM219.695 535.073C202.13 535.073 187.878 549.325 187.878 566.891C187.878 584.456 202.13 598.708 219.695 598.708C237.261 598.708 251.512 584.456 251.512 566.891C251.427 549.325 237.175 535.073 219.695 535.073ZM219.695 577.084C214.062 577.084 209.503 572.525 209.503 566.892C209.503 561.258 214.062 556.699 219.695 556.699C225.329 556.699 229.888 561.258 229.888 566.892C229.882 572.531 225.243 577.084 219.695 577.084Z" fill="#FFDB6E"/>
</svg>
