<?xml version="1.0" encoding="UTF-8"?>
<!-- Uploaded to: SVG Find, www.svgrepo.com, Generator: SVG Find Mixer Tools -->
<svg fill="#000000" width="800px" height="800px" version="1.1" viewBox="144 144 512 512" xmlns="http://www.w3.org/2000/svg">
 <g>
  <path d="m218.62 409.3 26.078 13.188c0.44531 0.29688 0.89062 0.37109 1.332 0.44531 0.074219 0.074218 0.14844 0.074218 0.22266 0.074218 0.74219 0 1.7031-0.44531 2.1484-1.0391 0.37109-0.44531 0.59375-1.0391 0.66797-1.7773 0.074219-0.37109 0.074219-0.96484 0.074219-1.6289v-1.7031c-0.074219-0.51953-0.22266-1.0391-0.37109-1.4805-0.22266-0.66797-0.59375-1.1094-1.1094-1.4805-0.22266-0.22266-0.51953-0.37109-0.96484-0.66797l-17.336-8.3711 17.484-8.5195c0.37109-0.22266 0.74219-0.44531 1.0352-0.66797 0.44531-0.37109 0.74219-0.89062 0.96484-1.4805 0.074219-0.37109 0.22266-0.81641 0.29688-1.4062l0.003906-1.7109c0-1.5547-0.22266-2.5195-0.66797-3.1875-0.59375-0.89062-1.9258-1.5547-3.7031-0.66797l-25.781 13.039c-0.44531 0.14844-1.1133 0.66797-1.4062 1.0391-0.14844 0.29688-0.37109 0.59375-0.51953 0.96484-0.074219 0.37109-0.22266 0.81641-0.29688 1.332-0.074219 0.37109-0.074219 0.74219-0.074219 1.1836 0 1.0391 0.074219 1.8516 0.29688 2.4453 0.36719 1.043 0.88672 1.707 1.625 2.0781"/>
  <path d="m256.56 434.56c0.44531 0.29688 0.96094 0.51953 1.7031 0.74219 0.44531 0.074218 1.0391 0.14844 1.7773 0.14844 0.59375 0 1.1133-0.074219 1.4805-0.14844 0.51953 0 0.89062-0.14844 1.2578-0.29688 0.59375-0.22266 1.0391-0.51953 1.4062-0.96484 0.29688-0.37109 0.51953-0.89062 0.74219-1.4062l20.004-54.973c0.29688-0.66797 0.37109-1.2578 0.22266-1.9258-0.14844-0.74219-0.59375-1.4805-1.1875-1.9258-0.51953-0.22266-0.96484-0.44531-1.6289-0.59375-0.89062-0.14844-2.2969-0.14844-3.1875-0.074219-0.59375 0.074219-1.1133 0.14844-1.4805 0.44531-0.51953 0.22266-0.96484 0.44531-1.2578 0.89062-0.37109 0.37109-0.66797 0.81641-0.74219 1.332l-20.004 54.902c-0.29688 0.66797-0.44531 1.4062-0.29688 2 0.15234 0.73828 0.59766 1.4023 1.1914 1.8477"/>
  <path d="m163.28 306.39c-0.96484 0-1.9258-0.14844-2.8164-0.51953v263.09c0 17.559 14.375 31.859 31.934 31.859h415.27c17.559 0 31.859-14.301 31.859-31.859v-263.09c-0.89062 0.37109-1.7773 0.51953-2.7422 0.51953zm35.934 44.012c0-9.6328 7.7812-17.41 17.336-17.41h107.88c9.5586 0 17.336 7.7812 17.336 17.41v107.8c0 9.6328-7.7812 17.336-17.336 17.336h-107.88c-9.5586 0-17.336-7.707-17.336-17.336zm400.3 218.27h-393.51c-1.5352 0-2.7773-1.2461-2.7773-2.7773 0-1.5352 1.2461-2.7773 2.7773-2.7773h393.5c1.5352 0 2.7773 1.2461 2.7773 2.7773 0.003907 1.5352-1.2422 2.7773-2.7734 2.7773m0-39.512h-393.51c-1.5352 0-2.7773-1.2461-2.7773-2.7773 0-1.5352 1.2461-2.7773 2.7773-2.7773h393.5c1.5352 0 2.7773 1.2461 2.7773 2.7773 0.003907 1.5312-1.2422 2.7773-2.7734 2.7773m0-39.512h-223.1c-1.5352 0-2.7773-1.2461-2.7773-2.7773 0-1.5352 1.2461-2.7773 2.7773-2.7773h223.1c1.5352 0 2.7773 1.2461 2.7773 2.7773 0.003907 1.5312-1.2422 2.7773-2.7734 2.7773m0-39.504h-223.1c-1.5352 0-2.7773-1.2461-2.7773-2.7773 0-1.5352 1.2461-2.7773 2.7773-2.7773h223.1c1.5352 0 2.7773 1.2461 2.7773 2.7773 0.003907 1.5312-1.2422 2.7773-2.7734 2.7773m0-39.512h-223.1c-1.5352 0-2.7773-1.2461-2.7773-2.7773 0-1.5391 1.2461-2.7773 2.7773-2.7773h223.1c1.5352 0 2.7773 1.2383 2.7773 2.7773 0.003907 1.5312-1.2422 2.7773-2.7734 2.7773m0-39.512h-223.1c-1.5352 0-2.7773-1.2461-2.7773-2.7773 0-1.5352 1.2461-2.7773 2.7773-2.7773h223.1c1.5352 0 2.7773 1.2461 2.7773 2.7773 0.003907 1.5312-1.2422 2.7773-2.7734 2.7773m0-39.512h-223.1c-1.5352 0-2.7773-1.2461-2.7773-2.7773 0-1.5352 1.2461-2.7773 2.7773-2.7773h223.1c1.5352 0 2.7773 1.2461 2.7773 2.7773 0.003907 1.5312-1.2422 2.7773-2.7734 2.7773"/>
  <path d="m294.64 422.93h0.074219c0.44531 0 0.96484-0.14844 1.4062-0.37109l26.078-13.188c0.22266-0.074219 0.89062-0.51953 1.0391-0.74219 0.29688-0.29688 0.51953-0.74219 0.74219-1.332 0.074219-0.29688 0.14844-0.59375 0.22266-1.0391 0.074219-0.44531 0.074219-0.81641 0.074219-1.332 0-0.96484-0.14844-1.8516-0.29688-2.4453-0.37109-1.0391-0.89062-1.7031-1.6289-2l-26.078-13.188c-0.51953-0.29688-0.96484-0.44531-1.4062-0.51953-0.81641-0.074219-2 0.44531-2.4453 1.1094-0.29688 0.44531-0.44531 0.96484-0.59375 1.6289v3.2617c0 0.66797 0.14844 1.1836 0.22266 1.6289 0.29688 0.59375 0.66797 1.1094 1.1875 1.4805 0.29688 0.22266 0.59375 0.44531 1.0352 0.59375l17.262 8.3711-17.336 8.5938c-0.44531 0.14844-0.81641 0.37109-1.1836 0.66797-0.44531 0.37109-0.74219 0.89062-0.96484 1.4805-0.14844 0.44531-0.22266 0.89062-0.22266 1.4062v3.1875c0.14844 0.66797 0.29688 1.1836 0.59375 1.5547 0.36719 0.59766 1.4766 1.1914 2.2188 1.1914"/>
  <path d="m607.67 199.18h-415.27c-17.559 0-31.934 14.375-31.934 31.934v66.902c0 1.5547 1.2578 2.8164 2.8164 2.8164h473.51c1.5547 0 2.7422-1.2578 2.7422-2.8164v-66.902c0-17.559-14.301-31.934-31.859-31.934m-389.19 71.129c-10.668 0-19.262-8.5938-19.262-19.188 0-10.668 8.5938-19.258 19.262-19.258 10.594 0 19.188 8.5859 19.188 19.258 0 10.59-8.5938 19.188-19.188 19.188m66.641 0c-10.668 0-19.262-8.5938-19.262-19.188 0-10.668 8.5938-19.258 19.262-19.258 10.594 0 19.188 8.5859 19.188 19.258 0.003906 10.59-8.5898 19.188-19.188 19.188m66.645 0c-10.668 0-19.262-8.5938-19.262-19.188 0-10.668 8.5938-19.258 19.262-19.258 10.594 0 19.188 8.5859 19.188 19.258 0.003906 10.59-8.5898 19.188-19.188 19.188"/>
 </g>
</svg>